<?xml version="1.0" encoding="UTF-8"?>
<svg id="Layer_1" xmlns="http://www.w3.org/2000/svg" version="1.1" viewBox="0 0 2000 2000">
  <!-- Generator: Adobe Illustrator 29.1.0, SVG Export Plug-In . SVG Version: 2.1.0 Build 142)  -->
  <defs>
    <style>
      .st0 {
        font-family: Montserrat-Regular, Montserrat;
      }

      .st1 {
        font-family: Montserrat-Medium, Montserrat;
        font-size: 43px;
        font-weight: 500;
        letter-spacing: .2em;
      }

      .st2 {
        font-size: 118.46px;
        letter-spacing: .05em;
      }

      .st3 {
        font-family: Montserrat-Bold, Montserrat;
        font-weight: 700;
      }

      .st4 {
        fill: #35383b;
        fill-rule: evenodd;
      }
    </style>
  </defs>
  <text class="st2" transform="translate(604.18 1339.05)"><tspan class="st3" x="0" y="0">RIVER </tspan><tspan class="st0" x="449.89" y="0">DATA</tspan></text>
  <path class="st4" d="M897.9,790.14l102.1-58.95,120.82-69.76-30.23-17.45-43.57,25.16c.02.39.04.78.04,1.17,0,10.29-8.34,18.63-18.63,18.63s-18.63-8.34-18.63-18.63,8.34-18.63,18.63-18.63c3.81,0,7.36,1.15,10.31,3.11l35.29-20.37-26.09-15.06-70.3,40.59c.02.39.04.78.04,1.17,0,10.29-8.34,18.63-18.63,18.63s-18.63-8.34-18.63-18.63,8.34-18.63,18.63-18.63c3.81,0,7.36,1.15,10.31,3.11l62.01-35.8-31.37-18.11-118.67,68.52v257.41l16.57,9.57v-137.03Z"/>
  <path class="st4" d="M1016.57,740.76h0l-102.1,58.95v19.13l118.67-68.52,102.1,58.95,120.82,69.76v-34.91s-43.57-25.16-43.57-25.16c-.32.21-.65.42-.99.62-8.91,5.14-20.31,2.09-25.45-6.82-5.14-8.91-2.09-20.3,6.82-25.45,8.91-5.14,20.3-2.09,25.45,6.82,1.91,3.3,2.69,6.94,2.46,10.48l35.29,20.37v-30.12s-70.3-40.59-70.3-40.59c-.32.21-.65.42-.99.62-8.91,5.14-20.3,2.09-25.45-6.82-5.15-8.91-2.09-20.31,6.82-25.45,8.91-5.14,20.31-2.09,25.45,6.82,1.91,3.3,2.69,6.94,2.46,10.48l62.01,35.8v-36.22l-118.67-68.52-120.82,69.76Z"/>
  <path class="st4" d="M1135.24,828.41h0s-102.1-58.95-102.1-58.95l-16.57,9.57,118.67,68.52v117.9s0,139.51,0,139.51l30.23-17.45v-50.31c-.35-.17-.69-.36-1.03-.55-8.91-5.14-11.96-16.54-6.82-25.45,5.14-8.91,16.54-11.96,25.45-6.82,8.91,5.14,11.96,16.54,6.82,25.45-1.91,3.3-4.67,5.8-7.85,7.37v40.75l26.09-15.06v-81.18c-.35-.17-.69-.36-1.03-.55-8.91-5.14-11.96-16.54-6.82-25.45,5.14-8.91,16.54-11.96,25.45-6.82,8.91,5.14,11.96,16.54,6.82,25.45-1.91,3.3-4.67,5.8-7.85,7.37v71.61l31.37-18.11v-137.03s-120.82-69.76-120.82-69.76Z"/>
  <path class="st4" d="M1102.1,984.57l-102.1,58.95-120.82,69.76,30.23,17.45,43.57-25.16c-.02-.39-.04-.78-.04-1.17,0-10.29,8.34-18.63,18.63-18.63s18.63,8.34,18.63,18.63-8.34,18.63-18.63,18.63c-3.81,0-7.36-1.15-10.31-3.11l-35.29,20.37,26.09,15.06,70.3-40.59c-.02-.39-.04-.78-.04-1.17,0-10.29,8.34-18.63,18.63-18.63,10.29,0,18.63,8.34,18.63,18.63s-8.34,18.63-18.63,18.63c-3.81,0-7.36-1.15-10.31-3.11l-62.01,35.8,31.37,18.11,118.67-68.52v-257.41l-16.57-9.57v137.03Z"/>
  <path class="st4" d="M966.86,1024.39l-102.1-58.95-120.82-69.76v34.91s43.57,25.16,43.57,25.16c.32-.21.65-.42.99-.62,8.91-5.14,20.31-2.09,25.45,6.82,5.14,8.91,2.09,20.3-6.82,25.45-8.91,5.14-20.3,2.09-25.45-6.82-1.91-3.3-2.69-6.94-2.46-10.48l-35.29-20.37v30.12s70.3,40.59,70.3,40.59c.32-.21.65-.42.99-.62,8.91-5.14,20.3-2.09,25.45,6.82,5.15,8.91,2.09,20.31-6.82,25.45-8.91,5.14-20.31,2.09-25.45-6.82-1.91-3.3-2.69-6.94-2.46-10.48l-62.01-35.8v36.22l118.67,68.52,104.94-60.58,118.46-68.39h-.47v-18.86l-118.67,68.52Z"/>
  <path class="st4" d="M864.76,927.17v-117.9s0-139.51,0-139.51l-30.23,17.45v50.31c.35.17.69.36,1.03.55,8.91,5.14,11.96,16.54,6.82,25.45-5.14,8.91-16.54,11.96-25.45,6.82-8.91-5.14-11.96-16.54-6.82-25.45,1.91-3.3,4.67-5.8,7.85-7.37v-40.75l-26.09,15.06v81.18c.35.17.69.36,1.03.55,8.91,5.14,11.96,16.54,6.82,25.45-5.14,8.91-16.54,11.96-25.45,6.82-8.91-5.14-11.96-16.54-6.82-25.45,1.91-3.3,4.67-5.8,7.85-7.37v-71.61l-31.37,18.11v137.03s120.82,69.76,120.82,69.76l102.1,58.95,16.57-9.57-118.67-68.52Z"/>
  <text class="st1" transform="translate(705.58 1407.06)"><tspan x="0" y="0">SIMPLE IS THE BEST</tspan></text>
</svg>