<?xml version="1.0" encoding="UTF-8"?>
<svg id="Layer_1" xmlns="http://www.w3.org/2000/svg" version="1.1" viewBox="0 0 1200 1200">
  <!-- Generator: Adobe Illustrator 29.1.0, SVG Export Plug-In . SVG Version: 2.1.0 Build 142)  -->
  <defs>
    <style>
      .st0 {
        fill: #35383b;
        fill-rule: evenodd;
      }
    </style>
  </defs>
  <path class="st0" d="M497.9,502.79l102.1-58.95,120.82-69.76-30.23-17.45-43.57,25.16c.02.39.04.78.04,1.17,0,10.29-8.34,18.63-18.63,18.63s-18.63-8.34-18.63-18.63,8.34-18.63,18.63-18.63c3.81,0,7.36,1.15,10.31,3.11l35.29-20.37-26.09-15.06-70.3,40.59c.02.39.04.78.04,1.17,0,10.29-8.34,18.63-18.63,18.63s-18.63-8.34-18.63-18.63,8.34-18.63,18.63-18.63c3.81,0,7.36,1.15,10.31,3.11l62.01-35.8-31.37-18.11-118.67,68.52v257.41l16.57,9.57v-137.03Z"/>
  <path class="st0" d="M616.57,453.4h0l-102.1,58.95v19.13l118.67-68.52,102.1,58.95,120.82,69.76v-34.91s-43.57-25.16-43.57-25.16c-.32.21-.65.42-.99.62-8.91,5.14-20.31,2.09-25.45-6.82-5.14-8.91-2.09-20.3,6.82-25.45,8.91-5.14,20.3-2.09,25.45,6.82,1.91,3.3,2.69,6.94,2.46,10.48l35.29,20.37v-30.12s-70.3-40.59-70.3-40.59c-.32.21-.65.42-.99.62-8.91,5.14-20.3,2.09-25.45-6.82-5.15-8.91-2.09-20.31,6.82-25.45,8.91-5.14,20.31-2.09,25.45,6.82,1.91,3.3,2.69,6.94,2.46,10.48l62.01,35.8v-36.22l-118.67-68.52-120.82,69.76Z"/>
  <path class="st0" d="M735.24,541.05h0s-102.1-58.95-102.1-58.95l-16.57,9.57,118.67,68.52v117.9s0,139.51,0,139.51l30.23-17.45v-50.31c-.35-.17-.69-.36-1.03-.55-8.91-5.14-11.96-16.54-6.82-25.45,5.14-8.91,16.54-11.96,25.45-6.82,8.91,5.14,11.96,16.54,6.82,25.45-1.91,3.3-4.67,5.8-7.85,7.37v40.75l26.09-15.06v-81.18c-.35-.17-.69-.36-1.03-.55-8.91-5.14-11.96-16.54-6.82-25.45,5.14-8.91,16.54-11.96,25.45-6.82,8.91,5.14,11.96,16.54,6.82,25.45-1.91,3.3-4.67,5.8-7.85,7.37v71.61l31.37-18.11v-137.03s-120.82-69.76-120.82-69.76Z"/>
  <path class="st0" d="M702.1,697.21l-102.1,58.95-120.82,69.76,30.23,17.45,43.57-25.16c-.02-.39-.04-.78-.04-1.17,0-10.29,8.34-18.63,18.63-18.63s18.63,8.34,18.63,18.63-8.34,18.63-18.63,18.63c-3.81,0-7.36-1.15-10.31-3.11l-35.29,20.37,26.09,15.06,70.3-40.59c-.02-.39-.04-.78-.04-1.17,0-10.29,8.34-18.63,18.63-18.63,10.29,0,18.63,8.34,18.63,18.63s-8.34,18.63-18.63,18.63c-3.81,0-7.36-1.15-10.31-3.11l-62.01,35.8,31.37,18.11,118.67-68.52v-257.41l-16.57-9.57v137.03Z"/>
  <path class="st0" d="M566.86,737.03l-102.1-58.95-120.82-69.76v34.91s43.57,25.16,43.57,25.16c.32-.21.65-.42.99-.62,8.91-5.14,20.31-2.09,25.45,6.82,5.14,8.91,2.09,20.3-6.82,25.45-8.91,5.14-20.3,2.09-25.45-6.82-1.91-3.3-2.69-6.94-2.46-10.48l-35.29-20.37v30.12s70.3,40.59,70.3,40.59c.32-.21.65-.42.99-.62,8.91-5.14,20.3-2.09,25.45,6.82,5.15,8.91,2.09,20.31-6.82,25.45-8.91,5.14-20.31,2.09-25.45-6.82-1.91-3.3-2.69-6.94-2.46-10.48l-62.01-35.8v36.22l118.67,68.52,104.94-60.58,118.46-68.39h-.47v-18.86l-118.67,68.52Z"/>
  <path class="st0" d="M464.76,639.82v-117.9s0-139.51,0-139.51l-30.23,17.45v50.31c.35.17.69.36,1.03.55,8.91,5.14,11.96,16.54,6.82,25.45-5.14,8.91-16.54,11.96-25.45,6.82-8.91-5.14-11.96-16.54-6.82-25.45,1.91-3.3,4.67-5.8,7.85-7.37v-40.75l-26.09,15.06v81.18c.35.17.69.36,1.03.55,8.91,5.14,11.96,16.54,6.82,25.45-5.14,8.91-16.54,11.96-25.45,6.82-8.91-5.14-11.96-16.54-6.82-25.45,1.91-3.3,4.67-5.8,7.85-7.37v-71.61l-31.37,18.11v137.03s120.82,69.76,120.82,69.76l102.1,58.95,16.57-9.57-118.67-68.52Z"/>
</svg>